<svg xmlns="http://www.w3.org/2000/svg" width="43.98" height="49.642" viewBox="0 0 43.98 49.642">
  <g id="Group_508" data-name="Group 508" transform="translate(-409.403 -5927.196)">
    <path id="Path_351" data-name="Path 351" d="M15.048,61.795a13.227,13.227,0,0,1-4.189-9.773,13.7,13.7,0,0,1,4.033-9.773,5.485,5.485,0,0,0-7.757-7.757A25.276,25.276,0,0,0,0,52.021a24.745,24.745,0,0,0,7.291,17.53,5.431,5.431,0,0,0,7.757,0A5.728,5.728,0,0,0,15.048,61.795Z" transform="translate(409.403 5899.996)" fill="#d9d9d9"/>
    <path id="Path_352" data-name="Path 352" d="M42.248,15.048a13.226,13.226,0,0,1,9.773-4.189,13.7,13.7,0,0,1,9.773,4.033,5.485,5.485,0,1,0,7.757-7.757A25.276,25.276,0,0,0,52.021,0a24.745,24.745,0,0,0-17.53,7.291,5.431,5.431,0,0,0,0,7.757A5.728,5.728,0,0,0,42.248,15.048Z" transform="translate(382.203 5927.196)" fill="#ababab"/>
    <path id="Path_353" data-name="Path 353" d="M61.795,193.511a13.227,13.227,0,0,1-9.773,4.189,13.7,13.7,0,0,1-9.773-4.033,5.485,5.485,0,0,0-7.757,7.757,25.276,25.276,0,0,0,17.53,7.136,24.745,24.745,0,0,0,17.53-7.291,5.431,5.431,0,0,0,0-7.757A5.728,5.728,0,0,0,61.795,193.511Z" transform="translate(382.203 5768.279)" fill="#e8e8e8"/>
    <circle id="Ellipse_8" data-name="Ellipse 8" cx="5.43" cy="5.43" r="5.43" transform="translate(415.143 5932.936)" fill="#6e6e6e"/>
    <circle id="Ellipse_9" data-name="Ellipse 9" cx="5.43" cy="5.43" r="5.43" transform="translate(415.143 5960.239)" fill="#6e6e6e"/>
  </g>
</svg>
