<svg id="Divider_waves_2" data-name="Divider waves 2" xmlns="http://www.w3.org/2000/svg" width="370.733" height="112.994" viewBox="0 0 370.733 112.994">
  <g id="Layer_1" data-name="Layer 1" transform="translate(5 4.487)">
    <path id="Path_10" data-name="Path 10" d="M368.769,108.347H0V54.955C32.538,37,69.858,30.91,111.393,37.924c1.709.29,3.383.663,5.036.879,36.59,4.78,54.133,17.972,82.7,23.684,30.7,6.138,59.339-5.543,82-15.45,18.761-8.2,37.45-26.421,46.9-28.5C358.678,11.812,362.562,63.622,368.769,108.347Z" transform="translate(-4 -22.436)" fill="#fafafa" opacity="0.25"/>
    <path id="Path_11" data-name="Path 11" d="M370.733.015V105.994H0V65.053H.349V49.986c26.5-12.1,68.129-32.946,109.943-29.692C170.352,24.967,184.1,42.01,228.82,42.01c.765,0,35.786-1.82,55.739-7.806C308.02,27.167,370.733-.728,370.733.015Z" transform="translate(-5 2.513)" fill="#fafafa"/>
  </g>
</svg>
