<svg xmlns="http://www.w3.org/2000/svg" width="1647.412" height="126.61" viewBox="0 0 1647.412 126.61" preserveAspectRatio="none">
  <g id="Layer_1" data-name="Layer 1" transform="translate(38.664 0.005)">
    <path id="Path_10" data-name="Path 10" d="M1647.412,75.3H0V41.426c145.36-11.389,312.079-15.255,497.627-10.8,7.635.184,15.112.421,22.5.558,163.459,3.033,241.831,11.4,369.433,15.026,137.128,3.894,265.085-3.517,366.3-9.8,83.811-5.2,167.3-16.762,209.528-18.079C1602.331,14.055,1619.681,46.925,1647.412,75.3Z" transform="translate(-38.664 -17.953)" fill="#fafafa" opacity="0.25"/>
    <path id="Path_11" data-name="Path 11" d="M1574.762.017V126.6H0V77.7H1.482v-18c112.573-14.451,289.392-39.353,467-35.465C723.6,29.822,782.02,50.179,971.957,50.179c3.249,0,152.006-2.174,236.76-9.324C1308.376,32.449,1574.762-.869,1574.762.017Z" transform="translate(-38.664 0)" fill="#fafafa"/>
  </g>
</svg>
