<svg xmlns="http://www.w3.org/2000/svg" width="49.662" height="49.662" viewBox="0 0 49.662 49.662">
  <g id="Group_509" data-name="Group 509" transform="translate(-692 -5926.82)">
    <g id="gatsby-seeklogo.com" transform="translate(692 5926.82)">
      <path id="Path_344" data-name="Path 344" d="M24.831,0A24.831,24.831,0,1,0,49.662,24.831,24.831,24.831,0,0,0,24.831,0ZM5.336,25.09,24.572,44.326A19.5,19.5,0,0,1,5.336,25.09ZM29.195,43.839,5.823,20.467A19.5,19.5,0,0,1,40.6,13.356l-2.7,2.382A15.921,15.921,0,0,0,9.861,19.411L30.251,39.8a15.95,15.95,0,0,0,10.035-11.15H31.835v-3.82H44.329A19.506,19.506,0,0,1,29.195,43.839Z" fill="#ffc719"/>
    </g>
  </g>
</svg>
