<svg xmlns="http://www.w3.org/2000/svg" width="44.205" height="49.669" viewBox="0 0 44.205 49.669">
  <g id="Group_507" data-name="Group 507" transform="translate(-320 -5926.819)">
    <g id="Group_12" data-name="Group 12" transform="translate(322.201 5928.44)">
      <g id="Group_11" data-name="Group 11" transform="translate(0 0)">
        <rect id="Rectangle_185" data-name="Rectangle 185" width="2.105" height="40.626" transform="matrix(-0.866, -0.5, 0.5, -0.866, 1.823, 36.235)" fill="#ffc719"/>
      </g>
    </g>
    <g id="Group_14" data-name="Group 14" transform="translate(321.783 5960.811)">
      <g id="Group_13" data-name="Group 13">
        <rect id="Rectangle_186" data-name="Rectangle 186" width="40.626" height="2.105" fill="#ffc719"/>
      </g>
    </g>
    <g id="Group_16" data-name="Group 16" transform="translate(322.587 5960.17)">
      <g id="Group_15" data-name="Group 15" transform="translate(0 0)">
        <rect id="Rectangle_187" data-name="Rectangle 187" width="23.465" height="2.105" transform="matrix(-0.866, -0.5, 0.5, -0.866, 20.32, 13.556)" fill="#ffc719"/>
      </g>
    </g>
    <g id="Group_18" data-name="Group 18" transform="translate(340.24 5929.593)">
      <g id="Group_17" data-name="Group 17" transform="translate(0)">
        <rect id="Rectangle_188" data-name="Rectangle 188" width="23.465" height="2.105" transform="matrix(-0.866, -0.5, 0.5, -0.866, 20.32, 13.556)" fill="#ffc719"/>
      </g>
    </g>
    <g id="Group_20" data-name="Group 20" transform="translate(322.593 5929.585)">
      <g id="Group_19" data-name="Group 19" transform="translate(0)">
        <rect id="Rectangle_189" data-name="Rectangle 189" width="2.105" height="23.465" transform="matrix(-0.5, -0.866, 0.866, -0.5, 1.053, 13.556)" fill="#ffc719"/>
      </g>
    </g>
    <g id="Group_22" data-name="Group 22" transform="translate(339.873 5928.44)">
      <g id="Group_21" data-name="Group 21" transform="translate(0 0)">
        <rect id="Rectangle_190" data-name="Rectangle 190" width="40.626" height="2.105" transform="matrix(-0.5, -0.866, 0.866, -0.5, 20.313, 36.235)" fill="#ffc719"/>
      </g>
    </g>
    <g id="Group_24" data-name="Group 24" transform="translate(323.394 5939.921)">
      <g id="Group_23" data-name="Group 23">
        <rect id="Rectangle_191" data-name="Rectangle 191" width="2.105" height="23.465" fill="#ffc719"/>
      </g>
    </g>
    <g id="Group_26" data-name="Group 26" transform="translate(358.705 5939.921)">
      <g id="Group_25" data-name="Group 25">
        <rect id="Rectangle_192" data-name="Rectangle 192" width="2.105" height="23.465" fill="#ffc719"/>
      </g>
    </g>
    <g id="Group_28" data-name="Group 28" transform="translate(341.63 5961.039)">
      <g id="Group_27" data-name="Group 27" transform="translate(0 0)">
        <rect id="Rectangle_193" data-name="Rectangle 193" width="1.839" height="20.408" transform="matrix(-0.5, -0.866, 0.866, -0.5, 0.92, 11.797)" fill="#ffc719"/>
      </g>
    </g>
    <path id="Path_345" data-name="Path 345" d="M312.6,252.181a4.429,4.429,0,1,1-1.624-6.05,4.433,4.433,0,0,1,1.624,6.05" transform="translate(50.997 5711.89)" fill="#ffc719"/>
    <path id="Path_346" data-name="Path 346" d="M34,91.281a4.429,4.429,0,1,1-1.624-6.05A4.433,4.433,0,0,1,34,91.281" transform="translate(294.26 5852.382)" fill="#ffc719"/>
    <path id="Path_347" data-name="Path 347" d="M26.431,252.181a4.429,4.429,0,1,1,6.05,1.624,4.436,4.436,0,0,1-6.05-1.624" transform="translate(294.173 5711.89)" fill="#ffc719"/>
    <path id="Path_348" data-name="Path 348" d="M305.031,91.281a4.429,4.429,0,1,1,6.05,1.624,4.436,4.436,0,0,1-6.05-1.624" transform="translate(50.909 5852.382)" fill="#ffc719"/>
    <path id="Path_349" data-name="Path 349" d="M169.527,334.853a4.427,4.427,0,1,1,4.427-4.427,4.422,4.422,0,0,1-4.427,4.427" transform="translate(172.576 5641.635)" fill="#ffc719"/>
    <path id="Path_350" data-name="Path 350" d="M169.527,13.053a4.427,4.427,0,1,1,4.427-4.427,4.422,4.422,0,0,1-4.427,4.427" transform="translate(172.576 5922.619)" fill="#ffc719"/>
  </g>
</svg>
