<svg xmlns="http://www.w3.org/2000/svg" width="55.734" height="49.633" viewBox="0 0 55.734 49.633">
  <g id="Group_510" data-name="Group 510" transform="translate(-782.931 -5925.667)">
    <g id="React-icon" transform="translate(782.931 5925.667)">
      <path id="Path_341" data-name="Path 341" d="M231.434,102.822c0-3.692-4.624-7.191-11.712-9.361,1.636-7.225.909-12.973-2.295-14.814a4.981,4.981,0,0,0-2.545-.636v2.533a2.631,2.631,0,0,1,1.3.3c1.545.886,2.215,4.26,1.693,8.6-.125,1.068-.329,2.193-.579,3.34a55.057,55.057,0,0,0-7.214-1.238,55.418,55.418,0,0,0-4.726-5.68c3.7-3.442,7.18-5.328,9.543-5.328V78h0c-3.124,0-7.214,2.227-11.349,6.089-4.135-3.84-8.225-6.044-11.349-6.044v2.533c2.352,0,5.839,1.874,9.543,5.294a53.658,53.658,0,0,0-4.692,5.669,53.052,53.052,0,0,0-7.225,1.25c-.261-1.136-.454-2.238-.591-3.294-.534-4.34.125-7.714,1.659-8.611a2.528,2.528,0,0,1,1.306-.3V78.057h0a5.065,5.065,0,0,0-2.567.636c-3.192,1.84-3.908,7.577-2.261,14.78-7.066,2.181-11.667,5.669-11.667,9.349s4.624,7.191,11.712,9.361c-1.636,7.225-.909,12.973,2.295,14.814a4.994,4.994,0,0,0,2.556.636c3.124,0,7.214-2.227,11.349-6.089,4.135,3.84,8.225,6.044,11.349,6.044a5.065,5.065,0,0,0,2.567-.636c3.192-1.84,3.908-7.577,2.261-14.78C226.833,110,231.434,106.5,231.434,102.822Zm-14.791-7.577c-.42,1.465-.943,2.976-1.534,4.487-.466-.909-.954-1.818-1.488-2.726s-1.079-1.795-1.636-2.658C213.6,94.586,215.154,94.881,216.643,95.245Zm-5.2,12.1c-.886,1.534-1.795,2.988-2.738,4.34-1.693.148-3.408.227-5.135.227s-3.431-.08-5.112-.216q-1.414-2.028-2.749-4.317-1.3-2.232-2.363-4.521c.7-1.522,1.5-3.045,2.352-4.533.886-1.534,1.795-2.988,2.738-4.34,1.693-.148,3.408-.227,5.135-.227s3.431.08,5.112.216q1.414,2.028,2.749,4.317,1.3,2.232,2.363,4.521C213.075,104.333,212.292,105.855,211.44,107.344Zm3.669-1.477c.613,1.522,1.136,3.045,1.568,4.521-1.488.364-3.056.67-4.68.909.557-.875,1.113-1.772,1.636-2.692S214.643,106.776,215.109,105.867ZM203.59,117.988a46.835,46.835,0,0,1-3.158-3.635c1.022.045,2.068.08,3.124.08s2.124-.023,3.158-.08A44.341,44.341,0,0,1,203.59,117.988Zm-8.452-6.691c-1.613-.239-3.17-.534-4.658-.9.42-1.465.943-2.976,1.534-4.487.466.909.954,1.818,1.488,2.726S194.581,110.434,195.138,111.3Zm8.4-23.641a46.83,46.83,0,0,1,3.158,3.635c-1.022-.045-2.068-.08-3.124-.08s-2.124.023-3.158.08A44.342,44.342,0,0,1,203.533,87.656Zm-8.407,6.691c-.557.875-1.113,1.772-1.636,2.692s-1.011,1.818-1.477,2.726c-.613-1.522-1.136-3.045-1.568-4.521C191.934,94.893,193.5,94.586,195.126,94.347Zm-10.281,14.223c-4.022-1.715-6.623-3.965-6.623-5.748s2.6-4.044,6.623-5.748c.977-.42,2.045-.8,3.147-1.147a54.558,54.558,0,0,0,2.556,6.918,53.79,53.79,0,0,0-2.522,6.884C186.9,109.377,185.833,108.991,184.845,108.571Zm6.112,16.234c-1.545-.886-2.215-4.26-1.693-8.6.125-1.068.329-2.193.579-3.34a55.056,55.056,0,0,0,7.214,1.238,55.416,55.416,0,0,0,4.726,5.68c-3.7,3.442-7.18,5.328-9.543,5.328A2.711,2.711,0,0,1,190.957,124.8Zm26.947-8.657c.534,4.34-.125,7.714-1.659,8.611a2.528,2.528,0,0,1-1.306.3c-2.352,0-5.839-1.874-9.543-5.294a53.657,53.657,0,0,0,4.692-5.669,53.049,53.049,0,0,0,7.225-1.25A31.8,31.8,0,0,1,217.9,116.148Zm4.374-7.577c-.977.42-2.045.8-3.147,1.147a54.567,54.567,0,0,0-2.556-6.918,53.793,53.793,0,0,0,2.522-6.884c1.125.352,2.193.738,3.192,1.159,4.022,1.715,6.623,3.965,6.623,5.748S226.3,106.866,222.277,108.571Z" transform="translate(-175.7 -78)" fill="#d9d9d9"/>
      <path id="Path_342" data-name="Path 342" d="M320.8,78.4Z" transform="translate(-304.316 -78.355)" fill="#d9d9d9"/>
      <circle id="Ellipse_7" data-name="Ellipse 7" cx="5.192" cy="5.192" r="5.192" transform="translate(22.664 19.631)" fill="#d9d9d9"/>
      <path id="Path_343" data-name="Path 343" d="M520.5,78.1Z" transform="translate(-481.33 -78.089)" fill="#d9d9d9"/>
    </g>
  </g>
</svg>
